<?xml version="1.0" encoding="UTF-8"?>
<svg width="34px" height="31px" viewBox="0 0 34 31" version="1.1" xmlns="http://www.w3.org/2000/svg" xmlns:xlink="http://www.w3.org/1999/xlink">
    <!-- Generator: Sketch 51.2 (57519) - http://www.bohemiancoding.com/sketch -->
    <title>behance</title>
    <desc>Created with Sketch.</desc>
    <defs></defs>
    <g id="Page-1" stroke="none" stroke-width="1" fill="none" fill-rule="evenodd">
        <g id="Dark-Landing" transform="translate(-1175.000000, -3863.000000)" fill="#677897">
            <g id="Footer" transform="translate(0.000000, 3734.000000)">
                <g id="Socials" transform="translate(1064.000000, 129.000000)">
                    <g id="behance" transform="translate(111.000000, 0.000000)">
                        <path d="M0,15.5 C0,6.93958595 7.49720417,0 16.7454752,0 C25.9937463,0 33.4909504,6.93958595 33.4909504,15.5 C33.4909504,24.060414 25.9937463,31 16.7454752,31 C7.49720417,31 0,24.060414 0,15.5 Z M19.2004382,12.0576334 L23.9237366,12.0576334 L23.9237366,10.8032483 L19.2004382,10.8032483 L19.2004382,12.0576334 Z M23.5074068,13.1106265 C22.939017,12.877587 22.3003649,12.7605878 21.590402,12.7605878 C20.3959445,12.7605878 19.4259065,13.1067904 18.6760934,13.7944006 C17.9283776,14.4839288 17.5539954,15.4745862 17.5539954,16.7663728 C17.5539954,18.1435112 17.9671792,19.1389637 18.7987901,19.7498531 C19.6262062,20.3617015 20.5836599,20.6666667 21.6690538,20.6666667 C22.9830619,20.6666667 24.0055344,20.3041609 24.7354224,19.5801083 C25.203138,19.1236195 25.4674078,18.6738438 25.5250857,18.2326991 L23.3490546,18.2326991 C23.2232119,18.4513534 23.0763953,18.6220572 22.9096537,18.7457695 C22.6065823,18.9730549 22.2112263,19.0871771 21.7277804,19.0871771 C21.2684543,19.0871771 20.877293,18.9931941 20.5521992,18.8061872 C20.0152701,18.506017 19.7342213,17.9814385 19.6985658,17.2343697 L25.6372955,17.2343697 C25.6467337,16.5908739 25.6236626,16.0960247 25.5659846,15.7546172 C25.4674078,15.17058 25.2513777,14.6565507 24.9147483,14.213488 C24.5456096,13.7109667 24.0768453,13.3427069 23.5074068,13.1106265 Z M15.9862043,11.4074246 C15.4251553,10.7092653 14.4739938,10.3515545 13.1295736,10.3333333 L7.80327869,10.3333333 L7.80327869,20.412529 L12.7698731,20.412529 C13.3298733,20.412529 13.8479261,20.3684145 14.3271772,20.2773086 C14.8064284,20.1852436 15.2206609,20.0174169 15.5719719,19.7709513 C15.8844814,19.556133 16.1445565,19.2914462 16.352197,18.97785 C16.6804369,18.504099 16.8440325,17.9680124 16.8440325,17.3705491 C16.8440325,16.791307 16.700362,16.2983759 16.4151184,15.8936736 C16.1267288,15.4880124 15.7030581,15.1916783 15.1409604,15.0037123 C15.5111479,14.8310905 15.791148,14.6392885 15.9820096,14.4302243 C16.3228337,14.0562104 16.4916728,13.5604022 16.4916728,12.9456767 C16.4916728,12.3482135 16.3228337,11.8361021 15.9862043,11.4074246 Z"
                              id="Combined-Shape"></path>
                        <g id="Group-3" transform="translate(10.000000, 12.000000)">
                            <path d="M0.000283586976,0.0835266821 L2.3996856,0.0835266821 C2.92717651,0.0835266821 3.36133404,0.136272235 3.70320688,0.240804331 C4.0975142,0.39232792 4.29466786,0.702088167 4.29466786,1.1729621 C4.29466786,1.59492653 4.14470524,1.89030162 3.84687737,2.05716937 C3.54695212,2.22403712 3.15788824,2.307471 2.68073443,2.307471 L0.000283586976,2.307471 L0.000283586976,0.0835266821 Z M10.3193901,2.79464811 C10.6203641,2.51078113 11.0461321,2.36884764 11.5914507,2.36884764 C12.0948218,2.36884764 12.5153463,2.50215004 12.8572192,2.76971384 C13.1948973,3.03919567 13.3857588,3.43047177 13.4245603,3.9483372 L9.75100032,3.9483372 C9.82860335,3.46307811 10.0184162,3.07851508 10.3193901,2.79464811 Z M0.000283586976,3.97518948 L2.7142925,3.97518948 C3.18620286,3.97902552 3.55429294,4.03656613 3.81646537,4.14589327 C4.28522966,4.34249033 4.51803877,4.7021191 4.51803877,5.22765661 C4.51803877,5.84717711 4.27684014,6.26530549 3.79339419,6.4858778 C3.5280757,6.60383604 3.15474217,6.66329466 2.67653967,6.66329466 L0.000283586976,6.66329466 L0.000283586976,3.97518948 Z"
                                  id="Combined-Shape"></path>
                        </g>
                    </g>
                </g>
            </g>
        </g>
    </g>
</svg>