<?xml version="1.0" encoding="UTF-8"?>
<svg width="26px" height="26px" viewBox="0 0 26 26" version="1.1" xmlns="http://www.w3.org/2000/svg" xmlns:xlink="http://www.w3.org/1999/xlink">
    <!-- Generator: Sketch 51.2 (57519) - http://www.bohemiancoding.com/sketch -->
    <title>behance-color_Color</title>
    <desc>Created with Sketch.</desc>
    <defs></defs>
    <g id="Page-1" stroke="none" stroke-width="1" fill="none" fill-rule="evenodd">
        <g id="Dark-Landing" transform="translate(-1194.000000, -366.000000)">
            <g id="Panel-4" transform="translate(608.000000, 131.000000)">
                <g id="Preview" transform="translate(431.000000, 8.000000)">
                    <g id="Stat" transform="translate(124.000000, 218.000000)">
                        <g id="Group-4" transform="translate(22.000000, 9.000000)">
                            <g id="behance-color" transform="translate(9.000000, 0.000000)">
                                <path d="M0,13 C0,5.8202979 5.8202979,0 13,0 C20.1797021,0 26,5.8202979 26,13 C26,20.1797021 20.1797021,26 13,26 C5.8202979,26 0,20.1797021 0,13 Z" id="back" fill="#1769FF"></path>
                                <path d="M14.9459322,10.334942 L18.6533741,10.334942 L18.6533741,9.3638051 L14.9459322,9.3638051 L14.9459322,10.334942 L14.9459322,10.334942 Z M15.8242272,12.4539211 C15.5879848,12.6736891 15.4389956,12.9714153 15.378083,13.3470998 L18.2615574,13.3470998 C18.2311011,12.9461717 18.0812888,12.6432483 17.8162364,12.4346172 C17.5478913,12.227471 17.2178105,12.1242691 16.8227012,12.1242691 C16.3946662,12.1242691 16.0604696,12.2341531 15.8242272,12.4539211 L15.8242272,12.4539211 L15.8242272,12.4539211 Z M18.3265858,11.1501624 C18.7735532,11.3298376 19.1414987,11.614942 19.4312455,12.0039907 C19.6954748,12.347007 19.8650425,12.7449652 19.9424181,13.197123 C19.987691,13.4614385 20.0058002,13.8445476 19.9983919,14.3427378 L15.3369258,14.3427378 C15.3649127,14.9211137 15.5855153,15.327239 16.0069652,15.5596288 C16.2621399,15.7044084 16.5691728,15.7771694 16.92971,15.7771694 C17.3091795,15.7771694 17.6195049,15.6888167 17.8573936,15.5128538 C17.9882735,15.4170766 18.1035137,15.2849188 18.202291,15.1156381 L19.9103155,15.1156381 C19.8650425,15.4571694 19.6576102,15.8053828 19.2904878,16.1587935 C18.7175794,16.7193503 17.9150137,17 16.8836139,17 C16.0316595,17 15.2801288,16.7638979 14.6306679,16.2902088 C13.9779145,15.8172622 13.6535957,15.0465893 13.6535957,13.9804176 C13.6535957,12.9803248 13.9474582,12.2133643 14.5343601,11.679536 C15.1229082,11.1471926 15.8843167,10.8791647 16.8218781,10.8791647 C17.3791468,10.8791647 17.8804416,10.9697448 18.3265858,11.1501624 L18.3265858,11.1501624 L18.3265858,11.1501624 Z M7.7244873,13.3678886 L7.7244873,15.4490023 L9.82515155,15.4490023 C10.2005053,15.4490023 10.4935447,15.4029698 10.7018002,15.3116473 C11.0812697,15.1408817 11.2705929,14.8171694 11.2705929,14.3375406 C11.2705929,13.9306729 11.0878549,13.6522506 10.7199094,13.5000464 C10.5141233,13.415406 10.2251997,13.3708585 9.85478474,13.3678886 L7.7244873,13.3678886 L7.7244873,13.3678886 Z M7.7244873,10.3549884 L7.7244873,12.0767517 L9.82844412,12.0767517 C10.2029748,12.0767517 10.5083613,12.0121578 10.7437806,11.8829698 C10.9775536,11.7537819 11.0952632,11.5251044 11.0952632,11.1984223 C11.0952632,10.8338747 10.9405121,10.5940603 10.6310098,10.4767517 C10.3626648,10.3958237 10.021883,10.3549884 9.60784145,10.3549884 L7.7244873,10.3549884 L7.7244873,10.3549884 Z M12.4229949,9.83155452 C12.6872243,10.1634339 12.8197505,10.5599072 12.8197505,11.0224594 C12.8197505,11.4983759 12.6872243,11.8822274 12.4197024,12.1717865 C12.2698901,12.3336427 12.0501106,12.4821346 11.7595406,12.6157773 C12.200746,12.7612993 12.5332963,12.9907193 12.759661,13.3047796 C12.9835562,13.6180974 13.096327,13.9997216 13.096327,14.4481671 C13.096327,14.9107193 12.9679165,15.3257541 12.7102723,15.692529 C12.5472897,15.9353132 12.3431499,16.140232 12.0978529,16.3065429 C11.8220996,16.497355 11.4969576,16.6272854 11.1207807,16.6985615 C10.7446037,16.7690951 10.3379704,16.8032483 9.89841139,16.8032483 L6,16.8032483 L6,9 L10.1807499,9 C11.2360209,9.01410673 11.9826127,9.29104408 12.4229949,9.83155452 L12.4229949,9.83155452 L12.4229949,9.83155452 Z"
                                      id="Behance" fill="#FFFFFF"></path>
                            </g>
                        </g>
                    </g>
                </g>
            </g>
        </g>
    </g>
</svg>