<?xml version="1.0" encoding="UTF-8"?>
<svg width="33px" height="31px" viewBox="0 0 33 31" version="1.1" xmlns="http://www.w3.org/2000/svg" xmlns:xlink="http://www.w3.org/1999/xlink">
    <!-- Generator: Sketch 51.2 (57519) - http://www.bohemiancoding.com/sketch -->
    <title>dribbble</title>
    <desc>Created with Sketch.</desc>
    <defs></defs>
    <g id="Page-1" stroke="none" stroke-width="1" fill="none" fill-rule="evenodd">
        <g id="Dark-Landing" transform="translate(-1064.000000, -3863.000000)" fill="#677897">
            <g id="Footer" transform="translate(0.000000, 3734.000000)">
                <g id="Socials" transform="translate(1064.000000, 129.000000)">
                    <g id="dribbble">
                        <path d="M0,15.5 C0,6.93958595 7.38730118,0 16.5,0 C25.6126988,0 33,6.93958595 33,15.5 C33,24.060414 25.6126988,31 16.5,31 C7.38730118,31 0,24.060414 0,15.5 Z M25.3,15.4885397 C25.3,14.9290618 25.2394128,14.369584 25.1204085,13.8265841 C25.0043664,13.2953128 24.8324904,12.7729267 24.6073294,12.2751284 C24.3873349,11.7850198 24.1144689,11.3125848 23.7956544,10.872395 C23.4815587,10.4346607 23.1197235,10.0251007 22.7222387,9.65062923 C22.3239273,9.27816094 21.8855918,8.94000575 21.4202177,8.64414419 C20.9501248,8.34543936 20.4469311,8.0894805 19.9252753,7.88150181 C19.3936997,7.67067985 18.8372209,7.50906584 18.2721657,7.4010216 C17.6920583,7.28977869 17.0956244,7.23333333 16.4996383,7.23333333 C15.9032045,7.23333333 15.3067706,7.28977869 14.7275244,7.4010216 C14.1615735,7.50903353 13.6051292,7.67064754 13.0740014,7.88150181 C12.5523456,8.08951281 12.0487041,8.34543936 11.5786112,8.64414419 C11.1132371,8.94000575 10.6749361,9.27816094 10.2774513,9.65062923 C9.87955313,10.0251007 9.51771796,10.4346607 9.20317453,10.872395 C8.8860478,11.3125848 8.61273394,11.7849875 8.39187844,12.2751284 C8.16668298,12.7729267 7.99439364,13.2953128 7.87793817,13.8265841 C7.76013938,14.369584 7.7,14.9290618 7.7,15.4885397 C7.7,16.0475975 7.76017383,16.6058799 7.87790372,17.1500752 C7.99435919,17.6813142 8.16664853,18.2029249 8.39184399,18.701531 C8.6126995,19.1912841 8.88601335,19.6632991 9.20314009,20.1034566 C9.51768352,20.5408354 9.87951868,20.9511709 10.2774168,21.3252224 C10.6749016,21.6976583 11.1132027,22.0366536 11.5785768,22.3329352 C12.0486697,22.6303799 12.5523112,22.8863388 13.0739669,23.0939621 C13.6050948,23.304364 14.1615735,23.4655903 14.7274899,23.57441 C15.3067362,23.6864929 15.90317,23.7437137 16.4996039,23.7437137 C17.09559,23.7437137 17.6920583,23.6864929 18.2721312,23.57441 C18.8371865,23.4655903 19.3936997,23.304364 19.9252409,23.0939621 C20.4469311,22.8863388 20.9500903,22.6303799 21.4201833,22.3329352 C21.8855574,22.0366213 22.3238584,21.6976583 22.7222043,21.3252224 C23.1196891,20.9511709 23.4815243,20.5408354 23.7956199,20.1034566 C24.1144689,19.6632991 24.3873349,19.1913164 24.6073294,18.701531 C24.8324904,18.2029249 25.0043664,17.6813465 25.1204085,17.1500752 C25.2394128,16.6058799 25.3,16.0475975 25.3,15.4885397 Z"
                              id="Combined-Shape"></path>
                        <path d="M18.1166161,13.7996054 C21.0837678,12.6628792 22.2891043,11.0291625 22.3032953,11.0102612 C23.3577667,12.2110256 23.9950512,13.7447755 24.0122388,15.4159394 C23.9034988,15.3950026 21.3600439,14.8822771 18.778356,15.1870239 C18.7255188,15.0661203 18.6713727,14.9451844 18.6159177,14.8218253 C18.4599548,14.4779513 18.291041,14.1357897 18.1166161,13.7996054 Z M20.6991651,21.334883 C20.6226648,20.9100404 20.2221489,18.8405927 19.2363935,16.2995176 C21.6621185,15.9347068 23.7646891,16.5590952 23.9193775,16.6058476 C23.5850632,18.5705467 22.3866155,20.2667184 20.6991651,21.334883 Z M17.8282502,16.6260413 C18.8857527,19.2041757 19.3223315,21.3630895 19.4336204,21.9790128 C18.5316674,22.3389125 17.5403321,22.5376829 16.4996039,22.5376829 C14.7566985,22.5376829 13.1564605,21.9761695 11.880625,21.0454636 C11.8962918,21.0135643 13.3443079,18.0913701 17.7784096,16.6413562 C17.7947706,16.6357342 17.8115104,16.6312432 17.8282502,16.6260413 Z M21.4627562,10.1976355 C21.4442597,10.2234188 20.3738751,11.7519345 17.5381965,12.7491466 C16.2529498,10.5354353 14.8413276,8.77881177 14.7287643,8.63690678 C15.2964029,8.50873349 15.8889791,8.43939649 16.4996039,8.43939649 C18.4023643,8.43939649 20.1396553,9.10323526 21.4627562,10.1976355 Z M16.7062684,14.2599565 C16.921544,14.6557849 17.1274163,15.0572674 17.3160322,15.4579099 C17.2172121,15.4845009 17.1174964,15.511932 17.0195374,15.5425618 C12.9639525,16.7727604 10.9073303,20.1953459 10.9099136,20.1989969 C9.7127404,18.9506078 8.98438567,17.299573 8.98438567,15.4885397 C8.98438567,15.4127407 8.98824341,15.3393973 8.99041339,15.2636306 C9.12360868,15.2684448 12.8367505,15.3466347 16.7062684,14.2599565 Z M13.2931002,9.11212048 C13.3932292,9.23751512 14.7829104,11.0066102 16.0836226,13.1744092 C12.4753631,14.0737224 9.34363753,14.0366307 9.14551513,14.0350152 C9.63324344,11.8519013 11.197384,10.0404479 13.2931002,9.11212048 Z"></path>
                    </g>
                </g>
            </g>
        </g>
    </g>
</svg>