<?xml version="1.0" encoding="UTF-8"?>
<svg width="39px" height="32px" viewBox="0 0 39 32" version="1.1" xmlns="http://www.w3.org/2000/svg" xmlns:xlink="http://www.w3.org/1999/xlink">
    <!-- Generator: Sketch 51.2 (57519) - http://www.bohemiancoding.com/sketch -->
    <title>helmet</title>
    <desc>Created with Sketch.</desc>
    <defs></defs>
    <g id="Page-1" stroke="none" stroke-width="1" fill="none" fill-rule="evenodd">
        <g id="Video-Showreel" transform="translate(-1155.000000, -1011.000000)" fill="#162B3F" fill-rule="nonzero">
            <g id="Panel-3" transform="translate(212.000000, 853.000000)">
                <g id="Screen-3" transform="translate(687.000000, 109.000000)">
                    <g id="Icon" transform="translate(242.760006, 34.440000)">
                        <g id="Group-2" transform="translate(13.440000, 14.280000)">
                            <path d="M37.7304749,23.4946693 L35.5680693,23.4946693 C35.5205346,22.658143 35.4076397,21.8373202 35.2344774,21.0347473 C37.4265922,18.6274531 38.6400009,15.5427891 38.6400009,12.2773233 C38.6400009,7.30654931 35.8664346,2.83743643 31.4019903,0.614339251 C31.0522706,0.439903791 30.6299755,0.508234957 30.3532555,0.785379374 C30.0765355,1.06209937 30.0082043,1.48397005 30.1822154,1.83411422 C30.9665383,3.40827753 31.3642172,5.08599864 31.3642172,6.82059164 C31.3642172,8.72070735 30.8850502,10.5618291 29.9810416,12.20687 C28.142042,10.6259161 25.9316773,9.45919324 23.4823658,8.83996857 L23.4823658,6.21409949 C23.4823658,5.71158956 23.0749253,5.30457348 22.5728398,5.30457348 L16.509616,5.30457348 C16.007106,5.30457348 15.60009,5.71158956 15.60009,6.21409949 L15.60009,8.83996857 C13.150354,9.45876882 10.9399894,10.6259161 9.10098972,12.20687 C8.19698113,10.5614046 7.71781414,8.72070735 7.71781414,6.82016722 C7.71781414,5.0851498 8.11549304,3.4074287 8.89939156,1.83326539 C9.07382702,1.48354563 9.00464702,1.06125054 8.72835144,0.784954957 C8.45163144,0.508234957 8.02976077,0.439479374 7.67961659,0.613914834 C3.21602114,2.83786085 0.442454879,7.30697373 0.442454879,12.2773233 C0.442454879,15.5423646 1.65586359,18.6274531 3.84797831,21.0347473 C3.67481611,21.8373202 3.56192114,22.6577186 3.51438641,23.4942449 L1.35198089,23.4942449 C0.849470953,23.4946693 0.442454879,23.9021098 0.442454879,24.4041953 L0.442454879,30.4669947 C0.442454879,30.9690802 0.849470953,31.3765207 1.35198089,31.3765207 L37.7304749,31.3765207 C38.2325604,31.3765207 38.6400009,30.9690802 38.6400009,30.4669947 L38.6400009,24.4041953 C38.6400009,23.9021098 38.2325604,23.4946693 37.7304749,23.4946693 Z M33.1832692,6.82059164 C33.1832692,5.75106035 33.0533976,4.70062784 32.7966252,3.67778244 C35.3253027,5.77822305 36.8209489,8.89302072 36.8209489,12.2773233 C36.8209489,14.6926815 36.0565735,16.9989644 34.6432643,18.915208 C33.9162377,16.9157786 32.7953519,15.0755057 31.3417231,13.5026157 C32.5483411,11.4862097 33.1832692,9.191386 33.1832692,6.82059164 Z M29.8757862,14.6103445 C29.9037977,14.6400537 29.9322336,14.6697629 29.9602452,14.6994721 C30.191977,14.948605 30.4156448,15.204953 30.6291266,15.4697893 C30.6308243,15.4719114 30.632522,15.4736091 30.6342197,15.4757311 C31.7559543,16.8707904 32.6175211,18.4759362 33.1548333,20.2109536 C33.1650193,20.2436337 33.1730832,20.2771627 33.1828448,20.3098428 C33.4913961,21.3326882 33.6904478,22.3988242 33.7604766,23.4942449 L23.4823658,23.4942449 L23.4823658,10.708253 C25.9732702,11.4233959 28.1619896,12.7972343 29.8757862,14.6103445 Z M6.286255,3.67778244 C6.02905819,4.70105226 5.89918653,5.75148477 5.89918653,6.82101606 C5.89918653,9.191386 6.53369021,11.4862097 7.74073267,13.5030401 C6.28667942,15.0755057 5.16579365,16.9157786 4.43961586,18.9156324 C3.02588224,16.9993888 2.2615069,14.6935303 2.2615069,12.2777477 C2.2615069,8.8925963 3.75672862,5.77822305 6.286255,3.67778244 Z M5.8983377,20.3162091 C5.90894813,20.2809824 5.91743647,20.2453314 5.92847132,20.2101048 C6.56934126,18.1414954 7.67282592,16.2583564 9.12687917,14.6948035 C9.15149537,14.6684897 9.17653598,14.6421758 9.20115218,14.6162864 C10.9157976,12.8002053 13.106639,11.4242448 15.6005144,10.708253 L15.6005144,23.4946693 L5.32197917,23.4946693 C5.39200801,22.4013707 5.59063525,21.3369324 5.8983377,20.3162091 Z M36.8209489,29.5574687 L2.2615069,29.5574687 L2.2615069,25.3132969 L4.38359279,25.3132969 L16.509616,25.3132969 C17.0121259,25.3132969 17.419142,24.9058564 17.419142,24.4037709 L17.419142,9.55001851 L17.419142,7.12404992 L21.6633138,7.12404992 L21.6633138,9.55001851 L21.6633138,24.4041953 C21.6633138,24.9062808 22.0707543,25.3137213 22.5728398,25.3137213 L34.698863,25.3137213 L36.8209489,25.3137213 L36.8209489,29.5574687 Z"
                                  id="helmet"></path>
                        </g>
                    </g>
                </g>
            </g>
        </g>
    </g>
</svg>