<?xml version="1.0" encoding="UTF-8"?>
<svg width="48px" height="48px" viewBox="0 0 48 48" version="1.1" xmlns="http://www.w3.org/2000/svg" xmlns:xlink="http://www.w3.org/1999/xlink">
    <!-- Generator: Sketch 51.2 (57519) - http://www.bohemiancoding.com/sketch -->
    <title>icecream</title>
    <desc>Created with Sketch.</desc>
    <defs></defs>
    <g id="Page-1" stroke="none" stroke-width="1" fill="none" fill-rule="evenodd">
        <g id="Dark-Landing" transform="translate(-1128.000000, -2383.000000)" fill="#292A49" fill-rule="nonzero">
            <g id="Panel-3" transform="translate(237.000000, 2305.000000)">
                <g id="Screen-1" transform="translate(586.000000, 48.000000)">
                    <g id="Icon" transform="translate(289.000000, 16.000000)">
                        <g id="icecream" transform="translate(16.000000, 14.000000)">
                            <path d="M38.1975826,5.55849508 L38.7106413,5.75108429 C39.1436867,5.89703509 39.6567453,6.1713787 40.2514393,6.57411512 L40.6844846,6.90332745 L40.0627591,7.781227 L39.6307951,7.47944903 C39.2518128,7.20510542 38.8284989,6.96752385 38.3592313,6.76615564 L37.8461726,6.60100079 L38.1975826,5.55849508 Z M42.1982511,5.99689617 C39.9449016,3.69295854 37.0887487,2.60381442 33.6281705,2.73275591 C30.1140699,2.91546875 27.0232832,4.35083451 24.3574324,7.03995056 L16.2744603,15.0507839 C15.8797998,15.5446024 15.7262606,16.0389696 15.8149241,16.5322394 L15.7338294,16.6139938 L15.7749174,16.655694 L15.7338294,16.7791487 L15.8014083,16.6825797 L15.8965593,16.806583 C16.1668748,17.0809266 16.4274588,17.2455328 16.6799334,17.2998528 C16.9502489,17.3366149 17.2659773,17.2729672 17.6260375,17.1078123 C18.20235,16.8334687 18.9057107,16.2847815 19.7344979,15.4617507 C20.3648734,14.785768 21.2390736,14.3923593 22.3565576,14.2820731 C23.5827084,14.1180157 24.6455887,14.5202034 25.5462797,15.4897337 C26.5918598,16.5508948 26.7529678,17.8485401 26.0328475,19.3854129 C25.4922166,20.4827874 24.3833827,21.8265224 22.7079676,23.418264 C21.3207088,24.6989 20.4735403,25.6492262 20.1675432,26.2714375 C20.0048133,26.6011985 19.9415595,26.8936488 19.9772411,27.1498858 C20.0323855,27.388016 20.185384,27.6431556 20.4378586,27.9174992 C20.7979188,28.3196869 21.2844866,28.3657766 21.8970213,28.054671 L22.0046069,28.0272366 C22.2570815,27.9174992 22.6003821,27.7347863 23.0318055,27.4785494 L25.0051082,25.8599221 C26.5729377,24.4327867 27.6985312,23.4824604 28.3840511,23.0067486 L28.4651457,22.9793142 C30.1589423,22.0097839 31.5559324,22.0827593 32.655035,23.1982404 C33.0507768,23.6009768 33.3032514,24.067361 33.4119182,24.5979415 C33.555726,25.2377108 33.4740907,25.8785775 33.1680937,26.5183468 C32.9334599,27.1581161 32.5198773,27.7989827 31.9251833,28.438752 L31.870039,28.4936207 L30.4108762,29.75615 L30.3297816,29.8110188 C30.0237845,30.0304936 29.6361522,30.3136162 29.1674252,30.6609353 C28.1948303,31.6491209 27.6806904,32.4814794 27.6266273,33.1580108 C27.5909456,33.5234365 27.7261033,33.8619765 28.0321004,34.1730821 C28.3213379,34.4666298 28.6911294,34.6586703 29.1409343,34.7497524 L29.0868712,34.8046211 C29.1198497,34.7936474 29.1512063,34.7799302 29.180941,34.7640183 C29.195538,34.7706025 29.2095944,34.774992 29.222029,34.7766381 L29.2344635,34.7497524 C30.4643987,34.347016 31.4602408,33.6973703 32.221449,32.8013641 L32.2755121,32.719061 L40.8715429,24.1326547 C43.5390156,21.4440874 45.0073691,18.3072426 45.2776845,14.722669 C45.4960994,11.2642934 44.4683601,8.35679989 42.1982511,5.99689617 Z M47.9554292,14.9130634 C47.6851137,19.1752657 45.9648263,22.8970111 42.792945,26.0788483 L34.2239458,34.6383689 C32.8902094,36.1933485 31.5748545,37.1266654 30.2767998,37.4377711 L23.5464861,44.1860752 L17.004312,37.4920911 L8.08390264,46.4082584 C7.09346689,47.3953467 5.94895134,47.9171482 4.65089663,47.972017 L4.3805812,48 C3.11983001,48 2.06505919,47.5522712 1.21789062,46.6551676 C0.281517952,45.7410547 -0.115845736,44.5794839 0.0290433365,43.1710038 C0.118788061,41.8903678 0.659418929,40.75678 1.65093594,39.7696917 L10.5978362,30.8535245 L4.21893257,24.2692779 L12.976612,15.5166194 L12.976612,15.4617507 C13.0841975,15.096325 13.4631798,14.4192449 14.1119368,13.4321566 L14.1930315,13.3218705 L22.4652244,5.09156226 C25.6003428,1.92783176 29.2771733,0.235680387 33.4930128,0.0162055003 C37.7461559,-0.165958656 41.2878287,1.18765271 44.1164094,4.07649091 C46.9828342,7.03995056 48.2625075,10.6525072 47.9554292,14.9130634 Z M24.7893965,10.1400333 L24.0325133,9.34388819 L24.4379864,8.96035582 C27.0692368,6.43639463 30.0605474,5.09156226 33.4135401,4.92750478 C34.0439157,4.85398069 34.7197043,4.86330838 35.4409058,4.95439045 L35.9815367,5.00980786 L35.846379,6.1071823 L35.3057481,6.0254279 C34.8007989,5.97001049 34.1969142,5.9612315 33.4935534,5.99744485 C30.3946573,6.19881306 27.6195991,7.45146598 25.1689193,9.75595229 L24.7893965,10.1400333 Z M30.7903991,25.1740631 L30.736336,25.1466287 C30.5925282,25.0001292 30.2865311,25.0643256 29.8178042,25.3386693 C29.366918,25.6492262 28.3575602,26.5095678 26.7902713,27.9174992 L24.6277478,29.7007326 L24.4925901,29.7830357 C24.0060223,30.0935927 23.5097232,30.359706 23.0058552,30.5791809 C22.158146,30.9627132 21.3471997,31.0916547 20.5730163,30.9627132 C19.7977517,30.8354178 19.1127724,30.4601157 18.5180784,29.8373557 C17.8520212,29.1613731 17.446548,28.40199 17.3016589,27.5608525 C17.1762326,26.719715 17.3292311,25.8687011 17.7611952,25.0094569 C18.2299221,24.1134507 19.2657709,22.9156665 20.8698227,21.415007 C22.2754629,20.0432889 23.1853447,18.9645699 23.6005492,18.1783011 C23.7621978,17.8123267 23.7713885,17.5560898 23.6270401,17.4106877 C23.321043,17.1001307 23.0063959,16.9629589 22.6809361,16.9991722 L22.626873,16.9991722 C22.1949089,17.054041 21.8699898,17.1912128 21.6542781,17.4106877 C20.5362534,18.4899554 19.571768,19.2208068 18.7608217,19.6054365 C17.8779715,20.0070756 17.0313435,20.1360171 16.2203972,19.9889689 C15.3916101,19.8243627 14.6439176,19.4040683 13.9767791,18.7269883 L13.8151305,18.5343991 L8.02983956,24.2956149 L14.4098244,30.8798615 L13.8416214,31.4565317 L16.4636811,34.1999678 L17.0318841,33.6232975 L23.5735176,40.3178303 L27.0335552,36.8325691 C26.6913359,36.6322982 26.3756074,36.3848403 26.0874512,36.0918413 C25.3121865,35.2688105 24.9164447,34.3448212 24.8986039,33.3215196 C24.8807631,31.8757288 25.681978,30.3306256 27.3038706,28.6840152 C27.5022822,28.5018511 27.9893906,28.126549 28.7630334,27.5597551 L29.9794528,26.5172494 C30.2865311,26.2066924 30.5200837,25.8588247 30.6828136,25.4747437 L30.7903991,25.1740631 Z M11.1660392,34.1456478 L3.54314398,41.7449657 C3.03819475,42.2387842 2.75868859,42.7874714 2.7046255,43.3910274 C2.66894387,43.975928 2.80410158,44.4242054 3.11009865,44.7347624 C3.50584045,45.1012854 3.97510804,45.2746706 4.51573891,45.2565639 C5.14719577,45.2005978 5.70566745,44.9361306 6.1916946,44.4604188 L13.7875583,36.8890839 L11.1660392,34.1456478 Z M14.5714731,36.1203731 L15.7078791,34.9681299 L13.0587879,32.2246938 L11.9234631,33.376937 L14.5714731,36.1203731 Z"
                                  id="Shape"></path>
                        </g>
                    </g>
                </g>
            </g>
        </g>
    </g>
</svg>