<?xml version="1.0" encoding="UTF-8"?>
<svg width="24px" height="24px" viewBox="0 0 24 24" version="1.1" xmlns="http://www.w3.org/2000/svg" xmlns:xlink="http://www.w3.org/1999/xlink">
    <!-- Generator: Sketch 51.2 (57519) - http://www.bohemiancoding.com/sketch -->
    <title>logo</title>
    <desc>Created with Sketch.</desc>
    <defs></defs>
    <g id="Page-1" stroke="none" stroke-width="1" fill="none" fill-rule="evenodd">
        <g id="Dark-Landing" transform="translate(-138.000000, -27.000000)" fill="#FFFFFF" fill-rule="nonzero">
            <g id="Header" transform="translate(138.000000, 26.000000)">
                <g id="Logo" transform="translate(0.000000, 1.000000)">
                    <g id="logo">
                        <g id="Group">
                            <path d="M9,0 L1,0 C0.448,0 0,0.448 0,1 L0,9 C0,9.552 0.448,10 1,10 L9,10 C9.552,10 10,9.552 10,9 L10,1 C10,0.448 9.552,0 9,0 Z" id="Shape"></path>
                            <path d="M19,10 C21.757,10 24,7.757 24,5 C24,2.243 21.757,0 19,0 C16.243,0 14,2.243 14,5 C14,7.757 16.243,10 19,10 Z" id="Shape"></path>
                            <path d="M5.8945,14.5525 C5.725,14.214 5.3785,14 5,14 C4.6215,14 4.275,14.214 4.1055,14.5525 L0.1055,22.5525 C-0.0495,22.8625 -0.033,23.2305 0.1495,23.5255 C0.3315,23.8205 0.6535,24 1,24 L9,24 C9.3465,24 9.6685,23.8205 9.8505,23.526 C10.033,23.231 10.049,22.863 9.8945,22.553 L5.8945,14.5525 Z" id="Shape"></path>
                            <path d="M17.2331473,24 L17,24 C16.4445375,24 15.9239034,23.848344 15.4773202,23.5842542 L23.5842542,15.4773202 C23.848344,15.9239034 24,16.4445375 24,17 L24,17.2331473 L17.2331473,24 Z M20.0615744,24 L24,20.0615744 L24,21 C24,22.6545 22.6545,24 21,24 L20.0615744,24 Z M14.1877798,22.0453675 C14.0663792,21.7197278 14,21.367486 14,21 L14,20.5615744 L20.5615744,14 L21,14 C21.367486,14 21.7197278,14.0663792 22.0453675,14.1877798 L14.1877798,22.0453675 Z M14,17.7331473 L14,17 C14,15.3455 15.3455,14 17,14 L17.7331473,14 L14,17.7331473 Z" id="Combined-Shape"></path>
                        </g>
                    </g>
                </g>
            </g>
        </g>
    </g>
</svg>