<?xml version="1.0" encoding="UTF-8"?>
<svg width="33px" height="31px" viewBox="0 0 33 31" version="1.1" xmlns="http://www.w3.org/2000/svg" xmlns:xlink="http://www.w3.org/1999/xlink">
    <!-- Generator: Sketch 51.2 (57519) - http://www.bohemiancoding.com/sketch -->
    <title>medium</title>
    <desc>Created with Sketch.</desc>
    <defs></defs>
    <g id="Page-1" stroke="none" stroke-width="1" fill="none" fill-rule="evenodd">
        <g id="Dark-Landing" transform="translate(-1286.000000, -3863.000000)" fill="#677897">
            <g id="Footer" transform="translate(0.000000, 3734.000000)">
                <g id="Socials" transform="translate(1064.000000, 129.000000)">
                    <g id="medium" transform="translate(222.000000, 0.000000)">
                        <path d="M0,15.5 C0,6.93958595 7.38730118,0 16.5,0 C25.6126988,0 33,6.93958595 33,15.5 C33,24.060414 25.6126988,31 16.5,31 C7.38730118,31 0,24.060414 0,15.5 Z M13.8465777,11.3259148 L8.56381638,8.87399599 C8.51861697,8.85299012 8.47552804,8.84308579 8.43660144,8.84308579 C8.38114277,8.84308579 8.33424325,8.8633298 8.30123772,8.90028055 C8.26893568,8.936415 8.25,8.98865759 8.25,9.05401525 L8.25,19.5801351 C8.25,19.7592836 8.39122616,19.9713559 8.56381638,20.0514612 L13.4457041,22.3173202 C13.5135325,22.348829 13.5781366,22.3637399 13.6365265,22.3637399 C13.8010265,22.3637399 13.9163994,22.2455955 13.9163994,22.0472913 L13.9163994,11.4308354 C13.9163994,11.3864292 13.8893735,11.3457779 13.8465777,11.3259148 Z M20.0341479,20.1120844 L24.7779752,22.3138374 C25.0368605,22.4339953 25.2486704,22.3124769 25.2486704,22.0437541 L25.2486704,12.2463095 L20.0341479,20.1120844 Z M14.4172275,12.1137984 L14.4172275,17.5082811 L19.5828573,19.905835 L14.4172275,12.1137984 Z M25.124504,11.3004466 L19.7397362,8.80118288 C19.7152898,8.78980924 19.6886744,8.78453056 19.6620589,8.78387753 C19.6603002,8.78382311 19.6586001,8.78333333 19.6568413,8.78333333 C19.5913579,8.78333333 19.5261675,8.8138626 19.4908757,8.86703031 L16.1719143,13.8735573 L19.8768587,19.4623171 L25.1761521,11.4686568 C25.2154304,11.4093397 25.1915703,11.3315745 25.124504,11.3004466 Z"
                              id="Combined-Shape"></path>
                    </g>
                </g>
            </g>
        </g>
    </g>
</svg>