<?xml version="1.0" encoding="UTF-8"?>
<svg width="20px" height="24px" viewBox="0 0 20 24" version="1.1" xmlns="http://www.w3.org/2000/svg" xmlns:xlink="http://www.w3.org/1999/xlink">
    <!-- Generator: Sketch 51.2 (57519) - http://www.bohemiancoding.com/sketch -->
    <title>polygon</title>
    <desc>Created with Sketch.</desc>
    <defs></defs>
    <g id="Page-1" stroke="none" stroke-width="1" fill="none" fill-rule="evenodd">
        <g id="Dark-Landing" transform="translate(-1298.000000, -3737.000000)" fill="#677897" fill-rule="nonzero">
            <g id="Footer" transform="translate(0.000000, 3734.000000)">
                <g id="Address" transform="translate(976.000000, 3.000000)">
                    <path d="M339.072136,2.96243292 C339.072136,2.96243292 339.072136,2.93381038 339.072136,2.96243292 C335.168317,-0.987477639 328.831683,-0.987477639 324.927864,2.96243292 C324.927864,2.96243292 324.927864,2.96243292 324.927864,2.96243292 C321.024045,6.91234347 321.024045,13.352415 324.927864,17.3023256 L331.207921,23.6565295 C331.434229,23.8855098 331.717115,24 332,24 C332.282885,24 332.565771,23.8855098 332.792079,23.6565295 L339.072136,17.273703 C342.975955,13.3237925 342.975955,6.91234347 339.072136,2.96243292 Z M332,14.5700179 C329.381534,14.5700179 327.254031,12.4173956 327.254031,9.76801431 C327.254031,7.11863303 329.381534,4.96601073 332,4.96601073 C334.618466,4.96601073 336.745969,7.11863303 336.745969,9.76801431 C336.745969,12.4173956 334.618466,14.5700179 332,14.5700179 Z" id="polygon"></path>
                </g>
            </g>
        </g>
    </g>
</svg>