<?xml version="1.0" encoding="UTF-8"?>
<svg width="18px" height="18px" viewBox="0 0 18 18" version="1.1" xmlns="http://www.w3.org/2000/svg" xmlns:xlink="http://www.w3.org/1999/xlink">
    <!-- Generator: Sketch 51.2 (57519) - http://www.bohemiancoding.com/sketch -->
    <title>settings</title>
    <desc>Created with Sketch.</desc>
    <defs></defs>
    <g id="Page-1" stroke="none" stroke-width="1" fill="none" fill-rule="evenodd">
        <g id="Dark-Landing" transform="translate(-482.000000, -3079.000000)" fill="#6266D7" fill-rule="nonzero">
            <g id="Panel-5" transform="translate(138.000000, 2917.000000)">
                <g id="Stat-1" transform="translate(0.000000, 146.000000)">
                    <g id="settings" transform="translate(344.000000, 16.000000)">
                        <path d="M15.890381,5.48804368 C16.3892941,4.8394567 16.3144571,3.94141319 15.7407071,3.36766317 L14.1940766,1.82103268 C13.6203266,1.24728265 12.7222831,1.1724457 12.0736961,1.67135876 L11.8990765,1.79608702 C11.7992939,1.87092398 11.6995113,1.84597833 11.64962,1.82103268 C11.5997287,1.79608702 11.5248917,1.74619572 11.4999461,1.62146745 L11.4750004,1.39695657 C11.3752178,0.598695674 10.6767395,0 9.87847862,0 L7.7082068,0 C6.88500025,0 6.21146762,0.598695674 6.11168501,1.39695657 L6.0617937,1.62146745 C6.03684805,1.74619572 5.96201109,1.79608702 5.91211978,1.82103268 C5.86222848,1.84597833 5.76244586,1.87092398 5.66266325,1.79608702 L5.48804368,1.67135876 C4.8394567,1.1724457 3.94141319,1.24728265 3.36766317,1.82103268 L1.82103268,3.36766317 C1.24728265,3.94141319 1.1724457,4.8394567 1.67135876,5.48804368 L1.79608702,5.6876089 C1.87092398,5.78739152 1.84597833,5.88717413 1.82103268,5.93706543 C1.79608702,5.98695674 1.74619572,6.0617937 1.62146745,6.08673935 L1.39695657,6.11168501 C0.598695674,6.21146762 0,6.9099459 0,7.7082068 L0,9.87847862 C0,10.7016852 0.598695674,11.3752178 1.39695657,11.4750004 L1.62146745,11.5248917 C1.74619572,11.5498374 1.79608702,11.6246743 1.82103268,11.6745656 C1.84597833,11.724457 1.87092398,11.8242396 1.79608702,11.9240222 L1.67135876,12.0986417 C1.1724457,12.7472287 1.24728265,13.6452722 1.82103268,14.2190223 L3.36766317,15.7656527 C3.667011,16.0650006 4.09108711,16.2396202 4.51516321,16.2396202 C4.86440235,16.2396202 5.21364149,16.1148919 5.48804368,15.9153267 L5.6876089,15.7905984 C5.78739152,15.7157614 5.88717413,15.7407071 5.93706543,15.7656527 C5.98695674,15.7905984 6.0617937,15.8404897 6.08673935,15.965218 L6.11168501,16.1897289 C6.21146762,16.9879898 6.9099459,17.5866854 7.7082068,17.5866854 L9.87847862,17.5866854 C10.7016852,17.5866854 11.3752178,16.9879898 11.4750004,16.1897289 L11.5248917,15.965218 C11.5498374,15.8404897 11.6246743,15.7905984 11.6745656,15.7656527 C11.724457,15.7407071 11.8242396,15.7157614 11.9240222,15.7905984 L12.0986417,15.9153267 C12.3730439,16.1398375 12.7222831,16.2396202 13.0715222,16.2396202 C13.4955983,16.2396202 13.9196744,16.0650006 14.2190223,15.7656527 L15.7656527,14.2190223 C16.3394028,13.6452722 16.4142397,12.7472287 15.9153267,12.0986417 L15.7656527,11.8990765 C15.6908158,11.7992939 15.7157614,11.6995113 15.7407071,11.64962 C15.7656527,11.5997287 15.8155441,11.5248917 15.9402723,11.4999461 L16.1647832,11.4750004 C16.9630441,11.3752178 17.5617398,10.6767395 17.5617398,9.87847862 L17.5617398,7.7082068 C17.5617398,6.88500025 16.9630441,6.21146762 16.1647832,6.11168501 L15.9402723,6.0617937 C15.8155441,6.03684805 15.7656527,5.96201109 15.7407071,5.91211978 C15.7157614,5.86222848 15.6908158,5.76244586 15.7656527,5.66266325 L15.890381,5.48804368 Z M15.9153267,7.55853288 C15.9153267,7.55853288 15.9402723,7.55853288 15.9402723,7.55853288 C15.9901636,7.55853288 16.0400549,7.60842419 16.0400549,7.68326115 L16.0400549,9.85353297 C16.0400549,9.90342427 15.9901636,9.97826123 15.9402723,9.97826123 C15.9402723,9.97826123 15.9153267,9.97826123 15.9153267,9.97826123 L15.6658701,10.0281525 C15.0671745,10.1279352 14.5682614,10.5270656 14.3437505,11.07587 C14.1192396,11.6246743 14.1940766,12.2732613 14.5433157,12.7472287 L14.6929897,12.946794 C14.6929897,12.946794 14.7179353,12.9717396 14.7179353,12.9717396 C14.742881,12.9966853 14.742881,13.0715222 14.6929897,13.1214135 L13.1463592,14.668044 C13.0964679,14.7179353 13.0465766,14.7179353 12.9717396,14.668044 C12.9717396,14.668044 12.946794,14.6430984 12.946794,14.6430984 L12.7721744,14.5433157 C12.2732613,14.1940766 11.64962,14.1192396 11.1008156,14.3437505 C10.5520113,14.5682614 10.1528808,15.0671745 10.0530982,15.6658701 L10.0032069,15.9153267 C10.0032069,15.9153267 10.0032069,15.9402723 10.0032069,15.9402723 C10.0032069,15.9901636 9.95331558,16.0400549 9.87847862,16.0400549 L7.7082068,16.0400549 C7.6583155,16.0400549 7.58347854,15.9901636 7.58347854,15.9402723 C7.58347854,15.9402723 7.58347854,15.9153267 7.58347854,15.9153267 L7.53358723,15.6658701 C7.43380462,15.0671745 7.03467417,14.5682614 6.4858698,14.3437505 C6.26135892,14.2439679 6.03684805,14.2190223 5.81233717,14.2190223 C5.46309803,14.2190223 5.11385888,14.3188049 4.81451105,14.5433157 L4.61494582,14.6929897 C4.61494582,14.6929897 4.59000017,14.7179353 4.59000017,14.7179353 C4.56505451,14.742881 4.54010886,14.742881 4.54010886,14.742881 C4.51516321,14.742881 4.49021756,14.742881 4.44032625,14.6929897 L2.89369576,13.1463592 C2.84380445,13.0964679 2.84380445,13.0216309 2.89369576,12.9717396 C2.89369576,12.9717396 2.91864141,12.946794 2.91864141,12.946794 L3.04336968,12.7472287 C3.39260882,12.2483157 3.46744578,11.6246743 3.2429349,11.07587 C3.01842402,10.5270656 2.51951096,10.1279352 1.92081529,10.0281525 L1.67135876,9.97826123 C1.67135876,9.97826123 1.6464131,9.97826123 1.6464131,9.97826123 C1.5965218,9.97826123 1.54663049,9.92836993 1.54663049,9.85353297 L1.54663049,7.68326115 C1.54663049,7.63336984 1.5965218,7.55853288 1.6464131,7.55853288 C1.6464131,7.55853288 1.67135876,7.55853288 1.67135876,7.55853288 L1.89586963,7.50864158 C2.49456531,7.40885897 2.99347837,7.00972852 3.21798925,6.46092415 C3.44250013,5.91211978 3.36766317,5.2635328 3.01842402,4.78956539 L2.8687501,4.59000017 C2.8687501,4.59000017 2.84380445,4.56505451 2.84380445,4.56505451 C2.8188588,4.54010886 2.8188588,4.4652719 2.8687501,4.4153806 L4.4153806,2.8687501 C4.4652719,2.8188588 4.54010886,2.8188588 4.59000017,2.8687501 C4.59000017,2.8687501 4.61494582,2.89369576 4.61494582,2.89369576 L4.81451105,3.01842402 C5.31342411,3.36766317 5.93706543,3.44250013 6.4858698,3.21798925 C7.03467417,2.99347837 7.43380462,2.49456531 7.53358723,1.89586963 L7.58347854,1.6464131 C7.58347854,1.6464131 7.58347854,1.62146745 7.58347854,1.62146745 C7.58347854,1.57157614 7.63336984,1.52168484 7.7082068,1.52168484 L9.87847862,1.52168484 C9.92836993,1.52168484 10.0032069,1.57157614 10.0032069,1.62146745 C10.0032069,1.62146745 10.0032069,1.6464131 10.0032069,1.6464131 L10.0530982,1.87092398 C10.1528808,2.46961966 10.5520113,2.96853272 11.1008156,3.19304359 C11.64962,3.41755447 12.298207,3.34271751 12.7721744,2.99347837 L12.9717396,2.84380445 C12.9717396,2.84380445 12.9966853,2.8188588 12.9966853,2.8188588 C13.0216309,2.79391315 13.0964679,2.79391315 13.1463592,2.84380445 L14.6929897,4.39043494 C14.742881,4.44032625 14.742881,4.51516321 14.6929897,4.56505451 C14.6929897,4.56505451 14.668044,4.59000017 14.668044,4.59000017 L14.5433157,4.78956539 C14.1940766,5.28847845 14.1192396,5.91211978 14.3437505,6.46092415 C14.5682614,7.00972852 15.0671745,7.40885897 15.6658701,7.50864158 L15.9153267,7.55853288 Z"
                              id="Shape"></path>
                        <path d="M5.88038746,5.49169777 C5.73071354,5.59148039 5.60598528,5.7411543 5.48125701,5.89082822 C3.85978956,8.135937 4.43353958,10.4558827 5.73071354,11.7530567 C6.47908314,12.5014263 7.55174622,13.0003394 8.74913757,13.0003394 C9.64718108,13.0003394 10.6450072,12.7009915 11.592942,12.0025132 C11.7426159,11.9027306 11.8673442,11.7530567 11.9920725,11.6033828 C13.6135399,9.358274 13.0397899,7.03832826 11.7426159,5.7411543 C10.445442,4.44398034 8.12549624,3.84528467 5.88038746,5.49169777 Z M10.7946811,10.7302849 C10.7697355,10.7302849 10.7447898,10.7552306 10.7447898,10.7801762 C10.7447898,10.7801762 10.7447898,10.7801762 10.7447898,10.7801762 C9.09837671,11.9526219 7.60163752,11.4537089 6.82832228,10.6803936 C6.05500703,9.90707837 5.53114832,8.38539353 6.72853967,6.76392608 C6.75348532,6.73898043 6.75348532,6.71403477 6.77843097,6.71403477 C7.47690926,6.21512171 8.15044189,6.01555649 8.74913757,6.01555649 C9.54739846,6.01555649 10.2458768,6.36479563 10.6948985,6.81381739 C11.4682138,7.58713263 11.9671268,9.08387182 10.7946811,10.7302849 Z"
                              id="Shape"></path>
                    </g>
                </g>
            </g>
        </g>
    </g>
</svg>